<?xml version="1.0" encoding="UTF-8" standalone="no"?>
<svg width="512px" height="512px" viewBox="0 0 512 512" version="1.1" xmlns="http://www.w3.org/2000/svg" xmlns:xlink="http://www.w3.org/1999/xlink">
    <!-- Generator: Sketch 40.3 (33839) - http://www.bohemiancoding.com/sketch -->
    <title>Group 5</title>
    <desc>Created with Sketch.</desc>
    <defs></defs>
    <g id="3--DSX" stroke="none" stroke-width="1" fill="none" fill-rule="evenodd">
        <g id="Group-5">
            <circle id="Oval" fill="#FFFFFF" cx="256" cy="256" r="256"></circle>
            <g id="fork" transform="translate(33.844068, 33.844068)">
                <g id="Layer_1">
                    <circle id="Oval" fill="#E03A00" cx="222.155932" cy="222.155932" r="222.155932"></circle>
                    <g id="Group" transform="translate(67.688136, 130.169492)" fill="#940030">
                        <path d="M375.532908,69.9131661 L308.828854,3.20997966 L299.357722,90.768922 L236.027661,28.2216136 L150.765776,102.249871 L47.9735322,1.08040678 L44.0302644,19.0724339 L25.8117424,0.853911864 L23.5676203,46.4817898 L28.266739,45.2547254 L21.5734237,48.6009492 L24.5655864,140.604746 L15.3261559,176.434332 L152.447566,314.115471 C153.120976,314.121546 153.792651,314.140637 154.466929,314.140637 C277.159485,314.140637 376.622861,214.677261 376.622861,91.9847051 C376.623729,84.5364068 376.249708,77.1748881 375.532908,69.9131661 L375.532908,69.9131661 Z" id="Shape"></path>
                        <polygon id="Shape" points="24.4414915 21.4250305 4.86747119 1.85274576 0.630020339 27.4084881 10.4777763 44.3643661 21.3234983 46.6084881"></polygon>
                    </g>
                    <circle id="Oval" fill="#FFFFFF" cx="222.155932" cy="222.155932" r="103.553302"></circle>
                    <path d="M222.155932,118.601763 C279.348068,118.601763 325.710102,164.964664 325.710102,222.155932 C325.710102,279.3472 279.348068,325.710102 222.155932,325.710102 L222.155932,118.601763 L222.155932,118.601763 Z" id="Shape" fill="#DBDBDB"></path>
                    <circle id="Oval" fill="#E0E0E0" cx="222.155932" cy="222.155932" r="72.4809763"></circle>
                    <path d="M222.155932,149.667146 C262.189993,149.667146 294.644719,182.121003 294.644719,222.155932 C294.644719,262.190861 262.189993,294.644719 222.155932,294.644719 L222.155932,149.667146 L222.155932,149.667146 Z" id="Shape" fill="#BABABA"></path>
                    <path d="M112.627851,130.045397 C110.148556,130.045397 108.139607,132.054346 108.139607,134.533641 L108.139607,158.707851 C108.139607,166.304542 102.511946,172.5952 95.2085695,173.675607 L95.2085695,134.534508 C95.2085695,132.055214 93.1996203,130.046264 90.7203254,130.046264 C88.2410305,130.046264 86.2320814,132.055214 86.2320814,134.534508 L86.2320814,173.675607 C78.9313085,172.5952 73.3036475,166.304542 73.3036475,158.707851 L73.3036475,134.533641 C73.3036475,132.054346 71.2946983,130.045397 68.8154034,130.045397 C66.3361085,130.045397 64.3271593,132.054346 64.3271593,134.533641 L64.3271593,158.707851 C64.3271593,171.260529 73.9675119,181.593383 86.2329492,182.719783 L86.2329492,287.873302 C86.2329492,290.352597 88.2418983,292.361546 90.7211932,292.361546 C93.2004881,292.361546 95.2094373,290.352597 95.2094373,287.873302 L95.2094373,182.719783 C107.474875,181.595119 117.116963,171.260529 117.116963,158.707851 L117.116963,134.533641 C117.116095,132.053478 115.106278,130.045397 112.627851,130.045397 L112.627851,130.045397 Z" id="Shape" fill="#FFFFFF"></path>
                    <path d="M112.627851,130.045397 C110.148556,130.045397 108.139607,132.054346 108.139607,134.533641 L108.139607,158.707851 C108.139607,166.304542 102.511946,172.5952 95.2085695,173.675607 L95.2085695,134.534508 C95.2085695,132.067363 93.2187119,130.070563 90.7567729,130.049736 L90.7567729,292.358075 C93.2195797,292.338983 95.2085695,290.33958 95.2085695,287.873302 L95.2085695,182.718047 C107.474007,181.593383 117.116095,171.258793 117.116095,158.706115 L117.116095,134.533641 C117.116095,132.053478 115.106278,130.045397 112.627851,130.045397 L112.627851,130.045397 Z" id="Shape" fill="#E0E0E0"></path>
                    <path d="M372.813234,132.102942 C362.9056,144.871702 337.565939,182.971444 352.914658,222.023159 L376.518725,222.023159 L376.518725,133.378603 C376.517858,131.404366 374.02381,130.542644 372.813234,132.102942 L372.813234,132.102942 Z" id="Shape" fill="#FFFFFF"></path>
                    <path d="M376.517858,133.378603 C376.517858,131.403498 374.02381,130.541776 372.812366,132.102942 C370.785193,134.71501 368.110644,138.40141 365.272949,142.923498 L365.272949,222.023159 L376.51699,222.023159 L376.51699,133.378603 L376.517858,133.378603 L376.517858,133.378603 Z" id="Shape" fill="#E0E0E0"></path>
                    <path d="M376.517858,222.023159 L376.517858,304.635661 C376.517858,311.153681 371.233844,316.437695 364.715824,316.437695 L364.715824,316.437695 C358.197803,316.437695 352.91379,311.153681 352.91379,304.635661 L352.91379,222.023159 L376.517858,222.023159 L376.517858,222.023159 Z" id="Shape" fill="#FEE187"></path>
                    <path d="M365.273817,222.023159 L365.273817,316.409058 C371.531498,316.115742 376.517858,310.965369 376.517858,304.635661 L376.517858,222.023159 L365.273817,222.023159 L365.273817,222.023159 Z" id="Shape" fill="#FFC61B"></path>
                    <path d="M101.674522,222.155932 L101.674522,298.825763 C101.674522,304.875173 96.7706034,309.778224 90.722061,309.778224 L90.722061,309.778224 C84.6726508,309.778224 79.7696,304.874305 79.7696,298.825763 L79.7696,222.155932 L101.674522,222.155932 L101.674522,222.155932 Z" id="Shape" fill="#FEE187"></path>
                    <path d="M90.7576407,222.155932 L90.7576407,309.776488 C96.7896949,309.757397 101.673654,304.862156 101.673654,298.825763 L101.673654,222.155932 L90.7576407,222.155932 L90.7576407,222.155932 Z" id="Shape" fill="#FFC61B"></path>
                </g>
            </g>
        </g>
    </g>
</svg>